<svg xmlns="http://www.w3.org/2000/svg" xmlns:xlink="http://www.w3.org/1999/xlink" width="78" height="78" viewBox="0 0 78 78">
  <defs>
    <clipPath id="clip-path">
      <rect id="Rectangle_2" data-name="Rectangle 2" width="44.112" height="48.652" fill="none"/>
    </clipPath>
  </defs>
  <g id="Group_7" data-name="Group 7" transform="translate(-92 -94)">
    <circle id="Ellipse_1" data-name="Ellipse 1" cx="39" cy="39" r="39" transform="translate(92 94)" fill="#fff"/>
    <g id="Group_4" data-name="Group 4" transform="translate(-147.062 -140.156)">
      <g id="Group_3" data-name="Group 3" transform="translate(273.891 256.509)">
        <path id="Path_27868" data-name="Path 27868" d="M129.116,77.836l-5.458-5.078V71.011h2.471a2.06,2.06,0,0,0,0-4.121h-2.17V65.012h2.17a3.939,3.939,0,0,1,.406,7.857l3.861,3.592Z" transform="translate(-123.658 -65.008)" fill="#671be0"/>
        <path id="Path_27869" data-name="Path 27869" d="M132.021,66.832h-8.043V64.954h8.043Z" transform="translate(-123.677 -64.954)" fill="#671be0"/>
        <path id="Path_27870" data-name="Path 27870" d="M132.021,183.262h-8.043v-1.878h8.043Z" transform="translate(-123.677 -178.384)" fill="#671be0"/>
      </g>
      <g id="Group_6" data-name="Group 6" transform="translate(256.006 249.732)">
        <g id="Group_5" data-name="Group 5" transform="translate(0 0)" clip-path="url(#clip-path)">
          <path id="Path_1" data-name="Path 1" d="M31.781,23.114a1.5,1.5,0,0,0,.122-.122l3.822,1.625-13.665,5.8-13.674-5.8,3.775-1.606a14.1,14.1,0,0,1-1.418-1.662L5.879,23.405,3.071,21.17l6.123-2.6a11.27,11.27,0,0,1-.667-1.991L.639,19.921a1.045,1.045,0,0,0-.554,1.371.912.912,0,0,0,.31.413l3.644,2.911L.394,27.528A1.056,1.056,0,0,0,.225,29a1.024,1.024,0,0,0,.413.31l4.029,1.709v10.64a1.043,1.043,0,0,0,.639.967l16.341,6.95a.056.056,0,0,1,.038.009.987.987,0,0,0,.733,0c.019-.009.028,0,.047-.009l16.341-6.95a1.058,1.058,0,0,0,.639-.967V31.022l4.029-1.709a1.049,1.049,0,0,0,.554-1.371,1.116,1.116,0,0,0-.31-.413l-3.644-2.911,3.644-2.911a1.044,1.044,0,0,0,.169-1.465,1.141,1.141,0,0,0-.413-.319L35.509,16.54a10.235,10.235,0,0,1-.639,2.01h0l6.17,2.62-2.808,2.245L33.311,21.32M3.071,28.063l2.808-2.235,14.153,6.011-2.808,2.245ZM21.009,47.025,6.762,40.967V31.914L16.98,36.253a1.122,1.122,0,0,0,1.071-.141l2.958-2.367Zm2.094,0V33.745l2.968,2.367a1.1,1.1,0,0,0,1.061.141L37.35,31.914l.009,9.053Zm3.785-12.941L24.08,31.839l14.153-6.011,2.808,2.245Z" transform="translate(0 -1.007)" fill="#a87de7"/>
          <path id="Path_2" data-name="Path 2" d="M24.475.14A11.986,11.986,0,0,0,23.241.016C23.035.008,22.829,0,22.615,0a9.641,9.641,0,0,0-1.2.066A12.157,12.157,0,0,0,10.49,12.091a11.756,11.756,0,0,0,.371,3.029l-.066.033a11.14,11.14,0,0,0,.576,1.753l.05-.024a12.146,12.146,0,0,0,1.366,2.428l-.05.025a12.355,12.355,0,0,0,1.243,1.457l.04-.016a12.084,12.084,0,0,0,6.3,3.383l.577.1c.189.033.387.05.584.066s.4.033.593.041c.181.016.363.016.544.016a12.247,12.247,0,0,0,1.242-.066q.309-.024.617-.074a12.2,12.2,0,0,0,8.248-5.235c.222-.329.42-.658.609-1a11.947,11.947,0,0,0,1.111-2.881c.058-.239.116-.477.157-.716s.083-.478.107-.717c.024-.2.049-.394.057-.593a7.658,7.658,0,0,0,.041-.872h.008A12.159,12.159,0,0,0,24.475.14M22.64,22.545A10.322,10.322,0,0,1,22.631,1.9h.024a10.322,10.322,0,1,1-.016,20.644" transform="translate(-0.638 0)" fill="#671be0"/>
        </g>
      </g>
    </g>
  </g>
</svg>
