<svg xmlns="http://www.w3.org/2000/svg" width="78" height="78" viewBox="0 0 78 78">
    <defs>
        <clipPath id="n0v1w22goa">
            <path data-name="Rectangle 9387" style="fill:none" d="M0 0h36.204v44.559H0z"/>
        </clipPath>
    </defs>
    <g data-name="Group 27273" transform="translate(-432 -177)">
        <circle data-name="Ellipse 629" cx="39" cy="39" r="39" transform="translate(432 177)" style="fill:#fff"/>
        <g data-name="Group 27276" transform="translate(453 194)" style="clip-path:url(#n0v1w22goa)">
            <path data-name="Path 27819" d="M23.672 15.9h5.57a6.97 6.97 0 0 1 6.958 6.958v27.849a6.97 6.97 0 0 1-6.962 6.962H6.962A6.97 6.97 0 0 1 0 50.707V22.858A6.97 6.97 0 0 1 6.962 15.9h5.57v2.785h-5.57a4.182 4.182 0 0 0-4.177 4.177v27.845a4.182 4.182 0 0 0 4.177 4.177h22.28a4.182 4.182 0 0 0 4.177-4.177V22.858a4.182 4.182 0 0 0-4.177-4.177h-5.57z" transform="translate(0 -13.111)" style="fill:#671be0"/>
            <path data-name="Path 27820" d="M74.256 11.14h-7.419a3.257 3.257 0 0 1-3.253-3.253V3.253A3.257 3.257 0 0 1 66.837 0h7.419a3.257 3.257 0 0 1 3.253 3.253v4.634a3.257 3.257 0 0 1-3.253 3.253m-7.419-8.355a.468.468 0 0 0-.468.468v4.634a.468.468 0 0 0 .468.468h7.419a.468.468 0 0 0 .468-.468V3.253a.468.468 0 0 0-.468-.468z" transform="translate(-52.444)" style="fill:#671be0"/>
            <path data-name="Path 27821" d="M65.79 193.538H49.08a1.392 1.392 0 1 1 0-2.785h16.71a1.392 1.392 0 1 1 0 2.785" transform="translate(-39.333 -157.334)" style="fill:#a375e6"/>
            <path data-name="Path 27822" d="M65.79 145.85H49.08a1.392 1.392 0 1 1 0-2.785h16.71a1.392 1.392 0 1 1 0 2.785" transform="translate(-39.333 -118.001)" style="fill:#a375e6"/>
            <path data-name="Path 27823" d="M65.79 98.162H49.08a1.392 1.392 0 0 1 0-2.785h16.71a1.392 1.392 0 1 1 0 2.785" transform="translate(-39.333 -78.667)" style="fill:#a375e6"/>
        </g>
    </g>
</svg>
