<svg xmlns="http://www.w3.org/2000/svg" width="33.114" height="29.374" viewBox="0 0 33.114 29.374">
  <g id="noun-product-2794273" transform="translate(-87.368 -47.031)">
    <path id="Path_27533" data-name="Path 27533" d="M120.481,48.928V52.79a.35.35,0,0,1-.345.345h-.055c-.421.007-.841,0-1.259,0h-31.1a.35.35,0,0,1-.345-.345V49.9a3.5,3.5,0,0,1,.3-2,1.953,1.953,0,0,1,1.672-.869h29.216a1.926,1.926,0,0,1,1.914,1.872v.024Z" fill="#e7b730"/>
    <path id="Path_27534" data-name="Path 27534" d="M142.572,185.716V165.949a.334.334,0,0,0-.1-.245.318.318,0,0,0-.245-.1H114.174c-.379,0-.762-.007-1.141,0h-.048a.35.35,0,0,0-.345.345V185.74a2.446,2.446,0,0,0,.059.728,1.478,1.478,0,0,0,1.462,1.028h26.9a1.465,1.465,0,0,0,1.473-1.117,2.817,2.817,0,0,0,.041-.662Zm-9.159-14.221c0,.014-.01.031-.014.045a1.588,1.588,0,0,1-.372.6,1.562,1.562,0,0,1-1.1.466h-8.635a1.563,1.563,0,0,1-1.555-1.455c0-.028,0-.052,0-.079v-.114a1.55,1.55,0,0,1,.455-1.031,1.6,1.6,0,0,1,.359-.269c.017-.01.034-.017.052-.028a1.522,1.522,0,0,1,.693-.166h8.631a1.561,1.561,0,0,1,1.51,1.152.648.648,0,0,0,.021.107c.007.035.01.072.017.11,0,.014,0,.024,0,.038a1.223,1.223,0,0,1,.007.159,1.476,1.476,0,0,1-.066.466Z" transform="translate(-23.677 -111.09)" fill="#e7b730"/>
  </g>
</svg>
