<svg xmlns="http://www.w3.org/2000/svg" width="48.301" height="50.999" viewBox="0 0 48.301 50.999">
  <g id="noun-chat-41080_1_" data-name="noun-chat-41080 (1)" transform="translate(-271.594 -235.682)">
    <path id="Path_25803" data-name="Path 25803" d="M38.468,9.8a17.41,17.41,0,0,1-8.075,23.365,17.536,17.536,0,0,1-7.715,1.78h0A17.479,17.479,0,0,1,5.126,16.192c.03-.4.046-.614-5.126-5.775L6.808,9.038a.7.7,0,0,0,.669-.379A17.646,17.646,0,0,1,38.468,9.8Z" transform="translate(271.594 272.468) rotate(-66)" fill="#4caf50"/>
    <path id="Path_25804" data-name="Path 25804" d="M266.2,260.21c-1.02-.975-3.327-2.774-4.387-4.874-1.307-2.589-1.462-3.437-1.462-4.387s.236-1.294.487-1.462,2.1-1.421,2.1-1.421.452-.337.866.421c.33.6,1.908,2.95,1.908,2.95a1.377,1.377,0,0,1,.467.8c.051.363-.331.8-.591,1.066-.539.551-.693.6-.693,1.32s1.765,2.7,2.265,3.2.449.5.975.975c.624.561,2.251,2.031,2.94,1.813a2.418,2.418,0,0,0,1.453-.827c.479-.52,1.428-.214,1.822.1s2.411,1.41,2.986,1.787a1.181,1.181,0,0,1,.538,1l-1.338,2.012c-.168.251-.612.475-1.562.475s-1.924.008-4.387-1.523a26.514,26.514,0,0,1-4.387-3.412" transform="translate(27.225 3.42)" fill="#fff" fill-rule="evenodd"/>
  </g>
</svg>
